<svg width="138" height="61" viewBox="0 0 138 61" fill="none" xmlns="http://www.w3.org/2000/svg">
<path d="M74.5354 11.3782L63.4263 1.52004C62.6978 0.873597 68.0689 -1.55055 72.2141 1.52004C76.3593 4.59063 75.8619 9.16957 74.5354 11.3782Z" fill="#C7CA31"/>
<path d="M11.0761 40L111 40C103.365 40.35 88.3926 41.2337 89.5877 41.9687C90.7828 42.7037 101.483 43.15 106.684 43.2813C104.914 44.2875 100.045 46.2212 94.7333 45.9062C89.4217 45.5912 65.8516 45.775 54.7305 45.9062C52.794 46.4312 50.7469 47.4812 58.0503 47.4812C65.3537 47.4812 91.0816 47.9187 103.033 48.1375C104.305 48.3125 105.854 48.7675 101.871 49.1875C97.8871 49.6075 80.4031 49.3625 72.1591 49.1875C69.0054 49.3625 63.0299 50.2112 64.3578 52.2062C65.6856 54.2012 81.731 54.2625 89.5877 54.0437C82.561 54.3062 68.5406 55.1987 68.6734 56.6687C68.8062 58.1388 76.8067 59.1187 80.7904 59.425C79.9052 59.95 77.5371 61 75.1469 61H45.2693C46.3205 60.825 48.2903 60.2913 47.7591 59.5562C47.2125 58.7999 40.142 58.4883 37.4738 58.6214C36.7943 58.7831 36.3956 58.8594 36.472 58.7687C36.5307 58.6991 36.9007 58.65 37.4738 58.6214C39.7452 58.0811 45.1535 56.5876 46.4312 57.1937C47.7591 57.8237 61.4807 56.3187 68.1754 55.4875C69.5033 55.1375 70.9308 54.49 66.0176 54.7C61.1044 54.91 36.1954 55.3125 24.355 55.4875C20.5926 55.1812 16.9852 54.4637 32.6543 54.0437C48.3235 53.6237 45.6013 51.8562 42.2815 51.025L15.8897 50.6312C13.5105 50.15 10.8105 49.1875 19.0434 49.1875C27.2764 49.1875 36.7487 48.75 40.4557 48.5312C44.1627 48.3562 50.6473 47.6912 46.9292 46.4312C43.2111 45.1712 24.023 45.5562 14.8937 45.9062C12.072 45.3812 8.78544 44.2262 18.2135 43.8062C27.6415 43.3862 34.3142 43.6312 36.472 43.8062C36.0847 42.975 34.2146 41.4437 29.8325 41.9687C25.4505 42.4937 14.8384 42.1875 10.0801 41.9687C8.30961 41.3125 6.03006 40 11.0761 40Z" fill="white"/>
<g filter="url(#filter0_d_6_36)">
<path d="M21.7415 16.3226L4 34.9078L100.832 34.9078L78.1163 14.7065L75.1318 17.6155L55.7322 1.77774L44.7888 16.3226L46.9444 10.6663L37.8249 6.14121L27.8764 17.6155L21.7415 16.3226Z" fill="white"/>
</g>
<g filter="url(#filter1_i_6_36)">
<path d="M35.0061 11.0122L37.9907 6.16391L43.9598 12.7899C43.5729 13.8134 43.0313 15.8605 43.9598 15.8605C45.1204 15.8605 46.2811 16.5069 46.9443 15.8605C47.4749 15.3433 40.4225 22.7558 36.83 26.5267H32.3532C31.292 26.5267 30.8057 27.7119 30.6951 28.3045H25.5551V26.85C25.5551 26.3328 24.4497 26.419 23.897 26.5267C25.5551 24.8568 28.9044 21.3552 29.037 20.7088C29.2028 19.9007 31.0267 21.5168 32.3532 21.5168C33.6797 21.5168 35.8352 17.7998 36.83 16.5069C37.6259 15.4726 35.5036 14.9986 34.3429 14.8908C35.0614 14.7292 36.5647 13.9858 36.83 12.3051C37.0953 10.6243 35.7246 10.7429 35.0061 11.0122Z" fill="#007BA7"/>
</g>
<g filter="url(#filter2_i_6_36)">
<path d="M54.1125 9.69661L55.2732 1.61612L65.5533 11.3127C73.1805 17.2923 88.6007 29.316 89.2639 29.5746C90.0929 29.8978 60.5791 34.0997 63.0662 32.4836C65.5533 30.8675 50.9622 18.2619 50.1331 17.6155C49.3041 16.9691 51.957 14.3833 51.957 13.7369C51.957 13.2197 55.9364 12.7672 57.9261 12.6056L54.1125 9.69661Z" fill="#007BA7"/>
</g>
<rect x="2" y="33" width="69" height="22" fill="#037BB0"/>
<rect x="68" y="33" width="70" height="22" fill="white"/>
<path d="M5.44 40.432C5.44 38.736 5.904 37.44 6.832 36.544C7.76 35.648 9.288 35.2 11.416 35.2H17.032V37.84H11.416C10.536 37.84 9.88 38.048 9.448 38.464C9.032 38.88 8.824 39.536 8.824 40.432V42.76H15.976V45.4H8.824V52H5.44V40.432ZM22.8505 49.936C23.4425 49.936 23.9225 49.864 24.2905 49.72C24.6585 49.56 25.0585 49.288 25.4905 48.904L27.3385 50.584C26.4105 51.72 24.9145 52.288 22.8505 52.288C21.0105 52.288 19.6825 51.944 18.8665 51.256C18.0505 50.552 17.6425 49.416 17.6425 47.848V44.416C17.6425 43.184 18.0825 42.216 18.9625 41.512C19.8585 40.792 21.0745 40.432 22.6105 40.432C24.1945 40.432 25.4345 40.816 26.3305 41.584C27.2265 42.336 27.6745 43.44 27.6745 44.896C27.6745 45.6 27.6105 46.144 27.4825 46.528C27.3705 46.912 27.1385 47.2 26.7865 47.392C26.4345 47.568 25.9225 47.656 25.2505 47.656H20.7385V47.872C20.7385 49.248 21.4425 49.936 22.8505 49.936ZM22.6105 42.784C22.0185 42.784 21.5545 42.96 21.2185 43.312C20.8985 43.648 20.7385 44.096 20.7385 44.656V45.52H23.4745C23.8905 45.52 24.1785 45.456 24.3385 45.328C24.4985 45.2 24.5785 44.976 24.5785 44.656C24.5785 44.048 24.4105 43.584 24.0745 43.264C23.7385 42.944 23.2505 42.784 22.6105 42.784ZM32.2173 52.288C31.4013 51.872 30.8333 51.4 30.5133 50.872C30.1933 50.328 30.0333 49.576 30.0333 48.616V37.768C30.0333 37.336 29.9453 36.984 29.7693 36.712C29.6093 36.44 29.3133 36.144 28.8813 35.824L30.9693 34C31.7853 34.416 32.3533 34.896 32.6733 35.44C32.9933 35.968 33.1533 36.712 33.1533 37.672V48.52C33.1533 48.952 33.2333 49.304 33.3933 49.576C33.5693 49.848 33.8733 50.144 34.3053 50.464L32.2173 52.288ZM47.9046 52.288C46.2406 52.288 44.9606 51.904 44.0646 51.136C43.1686 50.368 42.7206 49.272 42.7206 47.848V44.872C42.7206 43.448 43.1686 42.352 44.0646 41.584C44.9606 40.816 46.2406 40.432 47.9046 40.432C49.9846 40.432 51.4726 41.064 52.3686 42.328L50.2326 44.056C49.8486 43.608 49.4966 43.296 49.1766 43.12C48.8566 42.928 48.4326 42.832 47.9046 42.832C47.2486 42.832 46.7366 43.008 46.3686 43.36C46.0166 43.712 45.8406 44.216 45.8406 44.872V47.848C45.8406 48.504 46.0166 49.008 46.3686 49.36C46.7366 49.712 47.2486 49.888 47.9046 49.888C48.4326 49.888 48.8566 49.8 49.1766 49.624C49.4966 49.432 49.8486 49.112 50.2326 48.664L52.3686 50.392C51.9206 51.032 51.3446 51.512 50.6406 51.832C49.9366 52.136 49.0246 52.288 47.9046 52.288ZM59.1318 49.936C59.7238 49.936 60.2038 49.864 60.5718 49.72C60.9398 49.56 61.3398 49.288 61.7718 48.904L63.6198 50.584C62.6918 51.72 61.1958 52.288 59.1318 52.288C57.2918 52.288 55.9638 51.944 55.1478 51.256C54.3318 50.552 53.9238 49.416 53.9238 47.848V44.416C53.9238 43.184 54.3638 42.216 55.2438 41.512C56.1398 40.792 57.3558 40.432 58.8918 40.432C60.4758 40.432 61.7158 40.816 62.6118 41.584C63.5078 42.336 63.9558 43.44 63.9558 44.896C63.9558 45.6 63.8918 46.144 63.7638 46.528C63.6518 46.912 63.4198 47.2 63.0678 47.392C62.7158 47.568 62.2038 47.656 61.5318 47.656H57.0198V47.872C57.0198 49.248 57.7238 49.936 59.1318 49.936ZM58.8918 42.784C58.2998 42.784 57.8358 42.96 57.4998 43.312C57.1798 43.648 57.0198 44.096 57.0198 44.656V45.52H59.7558C60.1718 45.52 60.4598 45.456 60.6198 45.328C60.7798 45.2 60.8598 44.976 60.8598 44.656C60.8598 44.048 60.6918 43.584 60.3558 43.264C60.0198 42.944 59.5318 42.784 58.8918 42.784Z" fill="white"/>
<path d="M76.885 37.432H71.677V35.2H84.901V37.432H79.717V52H76.885V37.432ZM92.2124 40.432C92.9484 40.432 93.5964 40.632 94.1564 41.032L93.4844 43.24C93.1964 43.048 92.9004 42.912 92.5964 42.832C92.3084 42.736 91.9724 42.688 91.5884 42.688C90.3404 42.688 89.4604 43.608 88.9484 45.448V52H86.3324V43.72C86.3324 43.336 86.2604 43.024 86.1164 42.784C85.9724 42.544 85.7084 42.272 85.3244 41.968L87.0764 40.432C87.6364 40.72 88.0524 41.04 88.3244 41.392C88.6124 41.728 88.7964 42.152 88.8764 42.664C89.2124 41.976 89.6604 41.432 90.2204 41.032C90.7804 40.632 91.4444 40.432 92.2124 40.432ZM104.619 49C104.619 49.384 104.691 49.696 104.835 49.936C104.979 50.176 105.243 50.448 105.627 50.752L103.875 52.288C102.979 51.84 102.411 51.248 102.171 50.512C101.803 51.024 101.299 51.448 100.659 51.784C100.019 52.12 99.2587 52.288 98.3787 52.288C97.2267 52.288 96.3147 52 95.6427 51.424C94.9707 50.832 94.6347 50 94.6347 48.928C94.6347 47.696 95.0587 46.824 95.9067 46.312C96.7547 45.8 97.8347 45.472 99.1467 45.328L100.539 45.184C101.051 45.136 101.411 45.048 101.619 44.92C101.843 44.776 101.971 44.568 102.003 44.296C101.907 42.952 101.099 42.28 99.5787 42.28C98.9867 42.28 98.4747 42.384 98.0427 42.592C97.6267 42.784 97.2267 43.112 96.8427 43.576L95.0427 42.304C95.4747 41.712 96.0507 41.256 96.7707 40.936C97.4907 40.6 98.4267 40.432 99.5787 40.432C101.259 40.432 102.515 40.784 103.347 41.488C104.195 42.176 104.619 43.184 104.619 44.512V49ZM99.0267 50.368C99.9547 50.368 100.683 50.136 101.211 49.672C101.739 49.208 102.003 48.624 102.003 47.92V46.624C101.699 46.752 101.171 46.856 100.419 46.936L99.3387 47.056C97.8667 47.216 97.1307 47.8 97.1307 48.808C97.1307 49.32 97.2907 49.712 97.6107 49.984C97.9467 50.24 98.4187 50.368 99.0267 50.368ZM111.975 52.288C111.223 52.288 110.623 52.096 110.175 51.712C109.727 51.312 109.367 50.656 109.095 49.744L106.287 40.72H108.831L111.471 49.504C111.567 49.808 111.639 50.008 111.687 50.104C111.751 50.2 111.847 50.248 111.975 50.248C112.087 50.248 112.175 50.2 112.239 50.104C112.319 49.992 112.399 49.792 112.479 49.504L115.095 40.72H117.615L114.855 49.744C114.583 50.656 114.223 51.312 113.775 51.712C113.343 52.096 112.743 52.288 111.975 52.288ZM123.961 50.272C124.585 50.272 125.105 50.192 125.521 50.032C125.953 49.856 126.385 49.56 126.817 49.144L128.377 50.584C127.897 51.144 127.297 51.568 126.577 51.856C125.857 52.144 124.969 52.288 123.913 52.288C122.185 52.288 120.905 51.936 120.073 51.232C119.241 50.512 118.825 49.416 118.825 47.944V44.44C118.825 43.208 119.257 42.24 120.121 41.536C121.001 40.816 122.201 40.456 123.721 40.456C125.273 40.456 126.481 40.84 127.345 41.608C128.209 42.36 128.641 43.448 128.641 44.872C128.641 45.528 128.577 46.04 128.449 46.408C128.321 46.776 128.089 47.048 127.753 47.224C127.417 47.384 126.921 47.464 126.265 47.464H121.417V47.944C121.417 49.496 122.265 50.272 123.961 50.272ZM123.697 42.448C122.993 42.448 122.433 42.648 122.017 43.048C121.617 43.448 121.417 43.976 121.417 44.632V45.664H124.849C125.297 45.664 125.609 45.592 125.785 45.448C125.961 45.288 126.049 45.016 126.049 44.632C126.049 43.928 125.841 43.392 125.425 43.024C125.025 42.64 124.449 42.448 123.697 42.448ZM133.111 52.288C132.407 51.92 131.911 51.496 131.623 51.016C131.351 50.536 131.215 49.88 131.215 49.048V37.48C131.215 37.08 131.143 36.76 130.999 36.52C130.855 36.28 130.591 36.016 130.207 35.728L131.959 34.192C132.663 34.56 133.151 34.984 133.423 35.464C133.695 35.928 133.831 36.584 133.831 37.432V49C133.831 49.384 133.903 49.696 134.047 49.936C134.207 50.176 134.479 50.448 134.863 50.752L133.111 52.288Z" fill="#007CA3"/>
<path d="M37.1487 42H39.8255V47.6C39.8255 48 39.8255 49.2 40.8293 50C41.4975 50.5325 40.0486 51.3333 39.1563 52C38.0243 51.3233 36.988 50.3033 37.0193 49.8112C36.9816 49.3843 36.9869 47.6102 37.1487 42Z" fill="white"/>
<path d="M35.8284 35.8284C36.5786 35.0783 37.596 34.6569 38.6569 34.6569C39.7177 34.6569 40.7351 35.0783 41.4853 35.8284C42.2354 36.5786 42.6569 37.596 42.6569 38.6569C42.6569 39.7177 42.2354 40.7351 41.4853 41.4853L38.6569 38.6569L35.8284 35.8284Z" fill="#C7CA31"/>
<defs>
<filter id="filter0_d_6_36" x="0" y="1.77774" width="104.832" height="41.13" filterUnits="userSpaceOnUse" color-interpolation-filters="sRGB">
<feFlood flood-opacity="0" result="BackgroundImageFix"/>
<feColorMatrix in="SourceAlpha" type="matrix" values="0 0 0 0 0 0 0 0 0 0 0 0 0 0 0 0 0 0 127 0" result="hardAlpha"/>
<feOffset dy="4"/>
<feGaussianBlur stdDeviation="2"/>
<feComposite in2="hardAlpha" operator="out"/>
<feColorMatrix type="matrix" values="0 0 0 0 0 0 0 0 0 0 0 0 0 0 0 0 0 0 0.25 0"/>
<feBlend mode="normal" in2="BackgroundImageFix" result="effect1_dropShadow_6_36"/>
<feBlend mode="normal" in="SourceGraphic" in2="effect1_dropShadow_6_36" result="shape"/>
</filter>
<filter id="filter1_i_6_36" x="23.897" y="6.16391" width="23.0757" height="27.8405" filterUnits="userSpaceOnUse" color-interpolation-filters="sRGB">
<feFlood flood-opacity="0" result="BackgroundImageFix"/>
<feBlend mode="normal" in="SourceGraphic" in2="BackgroundImageFix" result="shape"/>
<feColorMatrix in="SourceAlpha" type="matrix" values="0 0 0 0 0 0 0 0 0 0 0 0 0 0 0 0 0 0 127 0" result="hardAlpha"/>
<feOffset dy="8"/>
<feGaussianBlur stdDeviation="2.85"/>
<feComposite in2="hardAlpha" operator="arithmetic" k2="-1" k3="1"/>
<feColorMatrix type="matrix" values="0 0 0 0 0 0 0 0 0 0 0 0 0 0 0 0 0 0 0.25 0"/>
<feBlend mode="normal" in2="shape" result="effect1_innerShadow_6_36"/>
</filter>
<filter id="filter2_i_6_36" x="49.9727" y="1.61612" width="39.3084" height="36.9361" filterUnits="userSpaceOnUse" color-interpolation-filters="sRGB">
<feFlood flood-opacity="0" result="BackgroundImageFix"/>
<feBlend mode="normal" in="SourceGraphic" in2="BackgroundImageFix" result="shape"/>
<feColorMatrix in="SourceAlpha" type="matrix" values="0 0 0 0 0 0 0 0 0 0 0 0 0 0 0 0 0 0 127 0" result="hardAlpha"/>
<feOffset dy="8"/>
<feGaussianBlur stdDeviation="2.85"/>
<feComposite in2="hardAlpha" operator="arithmetic" k2="-1" k3="1"/>
<feColorMatrix type="matrix" values="0 0 0 0 0 0 0 0 0 0 0 0 0 0 0 0 0 0 0.25 0"/>
<feBlend mode="normal" in2="shape" result="effect1_innerShadow_6_36"/>
</filter>
</defs>
</svg>
